solid box
 facet normal -1.000000e+00 -0.000000e+00 -0.000000e+00
   outer loop
     vertex -2.000000e+00  1.830000e+00  1.220000e+00
     vertex -2.000000e+00  1.830000e+00 -1.220000e+00
     vertex -2.000000e+00 -1.830000e+00 -1.220000e+00
   endloop
 endfacet
 facet normal -1.000000e+00 -0.000000e+00  0.000000e+00
   outer loop
     vertex -2.000000e+00  1.830000e+00  1.220000e+00
     vertex -2.000000e+00 -1.830000e+00 -1.220000e+00
     vertex -2.000000e+00 -1.830000e+00  1.220000e+00
   endloop
 endfacet
 facet normal  0.000000e+00 -1.000000e+00  0.000000e+00
   outer loop
     vertex -2.000000e+00 -1.830000e+00  1.220000e+00
     vertex -2.000000e+00 -1.830000e+00 -1.220000e+00
     vertex  4.000000e+00 -1.830000e+00 -1.220000e+00
   endloop
 endfacet
 facet normal  0.000000e+00 -1.000000e+00  0.000000e+00
   outer loop
     vertex -2.000000e+00 -1.830000e+00  1.220000e+00
     vertex  4.000000e+00 -1.830000e+00 -1.220000e+00
     vertex  4.000000e+00 -1.830000e+00  1.220000e+00
   endloop
 endfacet
 facet normal  0.000000e+00  0.000000e+00  1.000000e+00
   outer loop
     vertex  4.000000e+00 -1.830000e+00  1.220000e+00
     vertex -2.000000e+00  1.830000e+00  1.220000e+00
     vertex -2.000000e+00 -1.830000e+00  1.220000e+00
   endloop
 endfacet
 facet normal  0.000000e+00  0.000000e+00  1.000000e+00
   outer loop
     vertex  4.000000e+00  1.830000e+00  1.220000e+00
     vertex -2.000000e+00  1.830000e+00  1.220000e+00
     vertex  4.000000e+00 -1.830000e+00  1.220000e+00
   endloop
 endfacet
 facet normal  0.000000e+00  1.000000e+00 -0.000000e+00
   outer loop
     vertex  4.000000e+00  1.830000e+00 -1.220000e+00
     vertex -2.000000e+00  1.830000e+00 -1.220000e+00
     vertex -2.000000e+00  1.830000e+00  1.220000e+00
   endloop
 endfacet
 facet normal  0.000000e+00  1.000000e+00  0.000000e+00
   outer loop
     vertex  4.000000e+00  1.830000e+00  1.220000e+00
     vertex  4.000000e+00  1.830000e+00 -1.220000e+00
     vertex -2.000000e+00  1.830000e+00  1.220000e+00
   endloop
 endfacet
 facet normal  0.000000e+00  0.000000e+00 -1.000000e+00
   outer loop
     vertex -2.000000e+00 -1.830000e+00 -1.220000e+00
     vertex -2.000000e+00  1.830000e+00 -1.220000e+00
     vertex  4.000000e+00 -1.830000e+00 -1.220000e+00
   endloop
 endfacet
 facet normal  0.000000e+00  0.000000e+00 -1.000000e+00
   outer loop
     vertex  4.000000e+00 -1.830000e+00 -1.220000e+00
     vertex -2.000000e+00  1.830000e+00 -1.220000e+00
     vertex  4.000000e+00  1.830000e+00 -1.220000e+00
   endloop
 endfacet
 facet normal  1.000000e+00  0.000000e+00  0.000000e+00
   outer loop
     vertex  4.000000e+00 -1.830000e+00 -1.220000e+00
     vertex  4.000000e+00  1.830000e+00 -1.220000e+00
     vertex  4.000000e+00  1.830000e+00  1.220000e+00
   endloop
 endfacet
 facet normal  1.000000e+00 -0.000000e+00  0.000000e+00
   outer loop
     vertex  4.000000e+00 -1.830000e+00  1.220000e+00
     vertex  4.000000e+00 -1.830000e+00 -1.220000e+00
     vertex  4.000000e+00  1.830000e+00  1.220000e+00
   endloop
 endfacet
endsolid
